<svg version="1.1" id="Logo" xmlns="http://www.w3.org/2000/svg" x="0" y="0" viewBox="0 0 380 160" xml:space="preserve"><style>.st0{fill:#17305c}</style><path class="st0" d="M87.5 36.5c-1.7.9-3.2 1.3-4.3 1.3h.3c-.3.2-1.2.4-2.7.7h.1c-.4-.1-1.5-.1-3.5-.1 0 0-.4.1-1.2.4-.7.3-1.2.4-1.3.4-2.5.2-5.8.6-9.9 1.2l-12.6 2c-.1 0-.3-.1-.8-.2s-.8-.2-.9-.2c0 .1-8.5 1.7-25.6 4.7-2.4 3.1-4 8.7-4.9 16.6 1.1.7 2.4 1 4 1 .1 0 .5-.1 1.3-.4.7-.3 1.2-.4 1.2-.4s.7.2 2 .7c4.5 0 11.7-.2 21.8-.5l13.7-.5h.3c1.2 0 1.8.3 2 1 .2 1.1.5 2.3.7 3.6-1.6 1.2-4.9 2.5-9.8 3.8-4.2 1.1-10.1 1.7-17.7 1.7-4.9 0-12 .7-21.3 2-1.1.2-1.7.9-2 2.2l-.4 2.6c-2 5.6-3.1 9.3-3.1 11.1v2.2c.4.1.9.3 1.4.4l34.1-5c.7 0 2.7-.1 6-.3l.7-.1 5.1-.4c.3 0 .8.2 1.4.7.6.1 2.8.1 6.6.1.1 0 1-.1 2.5-.4 1.6-.3 2.4-.4 2.4-.4 1.7 0 3.7.4 5.8 1.3.5 2 .9 3 1 3.1v-.2c0 1-.6 2.1-1.8 3.1-1.2 1-2.3 1.6-3.4 1.6-.1 0-.4-.1-1.1-.2-.7-.1-1.1-.2-1.2-.2-.1 0-.8.2-2.1.7-1.3.5-2.1.7-2.2.7l-18.7 1.7c-4.1.4-11.4 1.5-22.1 3.3l-14 2.4c-.6 0-2.8-.5-6.5-1.4-3.5-.9-5.6-1.3-6.4-1.3H.3c-.4-1.1-.5-1.7-.5-1.9 0-.2.7-2.3 2-6.4 1.4-4.6 2.4-7.8 2.8-9.6L7 75.9h-.1c-.1 0-.8-1-2-3.1 0-.7-.3-1.9-.9-3.4 1.5-1 3.4-2.6 5.7-4.7.4-.6 1.5-4.4 3.2-11.2v.1c-.1-.2-.1-1-.1-2.4l.6-.8c.4-.4.5-.8.5-1.1 0-.6-.6-1.3-1.8-2-1.1-.6-2.1-1-2.9-1H9c-.6-2.3-.9-3.9-.9-4.8 0-1.7.9-2.8 2.6-3.5 3.6-1.4 8-2.1 13.4-2.1.1 0 .3.1.6.2l.4.2c.1 0 1-.3 2.7-1 7.2-.3 16.7-.9 28.5-1.7l17.8-1.1c.8 0 3.2.9 7.3 2.6.3.1 1.4.1 3.2.1 1.4.3 2.3.7 2.9 1.3zM162.6 48.6c0 1.4 0 2.3-.1 2.7-.6.7-.8 1.1-.8 1.4 0 .2.3.3.8.3l-2.4.3c-.3 0-1.3-.9-3.1-2.6-2.2-2.2-3.8-3.6-4.9-4.2-3.1-1.8-7.9-2.8-14.5-2.8-.1 0-1 .2-2.5.5-1.5.4-2.3.6-2.3.6-4.2.5-9.3 3.9-15.1 10.1-1.2 1.3-2.7 4.3-4.4 9.1-1.8 5.2-2.8 9.3-2.8 12.3.3 2.7.4 4.2.4 4.5.9.4 1.9.6 3.2.6 0-.1 4.3-.9 12.8-2.3 5.9-1 10.5-1.5 13.9-1.5 1.4 0 2.8.4 4.1 1.3-.1.8-.9 1.9-2.3 3.2-1.4 1.3-2.8 2.2-4 2.7-3 .4-7.3 1.1-12.9 2.2-3 1.2-7.5 2.9-13.6 5.1.1 1.4.7 3.4 1.8 5.9 1.6 1.9 2.4 3.2 2.4 3.8 0 .6-.4 1.7-1.2 3.2-.8 1.5-1.4 2.2-1.8 2.2-2.2 0-4.5-2.2-7.1-6.7l-3.7-6.7c-5.7 1.3-8.7 1.9-8.9 1.9-1.2 0-2.3-.6-3.2-1.8-.9-1.2-1.4-2.5-1.4-4 0-.6.4-1.4 1.3-2.5s1.6-1.8 2.2-2c1.9-.6 3-.9 3.4-.9.1 0 .2 0 .4.1s.4.1.5.1c1.6 0 2.7-.2 3.2-.5 1.4-1 2.2-3 2.3-6.2.8-17.5 7.9-31.1 21.2-40.8 1.7-1.2 3.6-2 5.9-2.2 1.4-.3 3.1-.6 5-.9.6-.1 3.2-.1 7.7-.1 4.4 0 8.4.7 11.8 2.1.8.2 2.3.8 4.5 1.9 1.4 1 2.3 2.1 2.6 3.1 1.1 3.9 1.6 6.4 1.6 7.5zM190.1 79.7c.2.7.3 1.8.3 3.2 0 .8 0 1.7-.1 2.8-.2 3.1-.9 5-1.9 5.5-1.6 0-5.1.4-10.4 1.1l-8 1.1c0 .1-1.4.4-4.2 1-.3-.3-1.1-.4-2.4-.4-.4.4-.6.7-.7.7 0 .9 3.1 2.3 9.4 4.2 1.7.1 3.7.3 5.9.5 3.7.5 5.5 1.5 5.5 3 0 .4-1.1 1.2-3.4 2.5-.1.1-.7.7-1.8 1.9-2.1.2-3.2.4-3.2.4h.1c-.1 0-1.7-.1-4.5-.3l-4.7-.4c-1 0-2.6-.6-4.8-1.7-.5-.3-1.8-1-3.9-2.1-2.5-1-4.8-2.7-6.9-5.4-2.1-2.6-3.1-5-3.1-7.2 0-2.7.3-4.6.9-5.9 4.4-9.3 13.4-14 26.9-14 4.4 0 7.7 1.1 9.9 3.2 1.7 1.8 3.4 3.9 5.1 6.3zm-9.1 3.9c-.4-1.5-.8-2.7-1-3.6-.1-.3-.9-.9-2.4-1.7-3.4.3-7 .8-10.9 1.6-1 .2-2.2.8-3.8 1.9-1.5 1.1-2.3 2-2.3 2.6 0 .6.2.9.5.9h14.1c3.3-.1 5.2-.7 5.8-1.7zM237.9 97.1c.1.5.1 1 .1 1.4 0 2.8-1.5 4.2-4.5 4.2-.1 0-.3-.1-.7-.2-.4-.1-.6-.2-.7-.2-.2 0-1.1.4-2.6 1.2-1.7.9-2.8 1.3-3.1 1.4-4.9 1.2-8.4 1.8-10.6 1.8-.2 0-.6-.1-1.4-.2h-1.8c-.8.4-1.5.6-2.2.6-3.1 0-6.1-1-9.1-2.9-3-2-5-4.3-5.8-6.9-.7-2.1-1-3.1-1-3.1 0-2.4.5-4.5 1.4-6.2 1.4-2.6 3.9-5.4 7.5-8.4 1.7-1.4 3.9-2.7 6.5-4 5.2-2.4 9-3.6 11.4-3.6.1 0 .7.1 1.8.2s1.8.2 1.9.2c2.7 0 4.5.4 5.5 1.1.9.7 1.4 2.2 1.4 4.4-.1 0-.5 1-1.4 2.9-.5.4-1.3.6-2.4.6-.1 0-.6-.1-1.2-.2-.7-.1-1.2-.2-1.2-.2-3.7 0-9.6 2.4-17.5 7.1-2 1.2-3.3 3.2-4 6.2 3.6 2.7 7.3 4.1 11.2 4.1 0 0 1.9-.2 5.7-.4l5.6-.4c.1 0 1.5-.2 4.3-.7 2.8-.4 4.3-.6 4.4-.6.9-.1 1.8.2 2.5.8zM297.1 70.6c0 1.1-.4 2-1.3 2.5-.9.6-2.5 1.1-4.9 1.6-2.1.4-3.4.9-4 1.4-2.5.4-3.8.5-4 .5-2.5 0-6.1.4-10.9 1.1-1.5.2-2.4.7-2.7 1.6-.6 1.8-1.2 4.6-1.9 8.5-.1 3.3-.6 8.5-1.7 15.7-1 1.5-1.5 2.3-1.5 2.4-3.3-.2-5.3-.7-6-1.6-.4-.4-.5-1.7-.5-3.6 0-2.4.7-9.8 2.1-22.1-.7-.7-1.5-1-2.1-1h-.3c-.9.1-1.5.2-2 .2-.3 0-.6 0-.8-.1-3-.2-5.9-.3-8.9-.4-3.7-.7-5.5-2.6-5.5-5.9 0-1.1.4-2.1 1.2-3 .8-.9 1.7-1.3 2.7-1.3.1 0 .9.1 2.5.3 1.6.2 2.4.3 2.6.3.1 0 .7-.1 2.1-.2 1.3-.1 2-.2 2.1-.2.1 0 .5.1 1.1.4.6.3 1 .4 1.1.4.1 0 1-.1 2.6-.2 1.5-.1 2.3-.2 2.4-.2 1.5 0 2.5-.8 2.8-2.4.3-1.3.8-3.4 1.5-6.3l3.1-9.3c.1-1.2.4-2.9.7-5 .8-1.2 1.5-2.6 2.3-4.2 3.5-7.8 6.4-11.7 8.8-11.7 1 0 2.5 1.8 4.4 5.4 0 .6-.5 2.1-1.6 4.4-.6.8-1.4 1.9-2.3 3.5-.8 2.6-2.4 7.5-4.9 14.7-.7 2.1-1.3 5.4-1.8 9.9 2.2.7 3.5 1 3.9 1l2.4-.3c2-.3 3.5-.4 4.3-.4 2.2 0 4 .2 5.5.6l2.3.6c3.3-.2 5.1.6 5.1 2.4zM379.3 94.7c0 .5-.6 1.3-1.7 2.3-1.2 1-2.3 1.6-3.4 2-2 .7-5.9 2-11.6 3.9-6.5 2.1-11.4 3.2-14.6 3.2-.1 0-.7-.1-1.9-.4-1.2-.3-1.8-.4-1.8-.4-.1 0-1.2.3-3.3.8-.5 0-1.1-.6-1.9-1.8-.8-1.1-1.2-2-1.2-2.6 0-.2.5-.9 1.4-2.2l13.6-2.7c5.8-1.1 9.8-2.4 11.9-3.8 0-.2 0-.4-.1-.6-1-.8-4.2-2.4-9.6-4.8-5.7-2.5-8.9-4-9.8-4.6-1.1-.4-2.8-1.4-5.1-3-.7-.7-1-2.1-1-4.2 0 .2 0 .2-.1.2s-.2-.3-.3-.8c-.1-.2-.1-.4-.1-.6 0-1.3 1.4-2.6 4.3-3.8 3.4-1.4 8.5-2.8 15.2-4 6.7-1.3 12.3-1.9 16.6-1.9 1.2 0 2 .2 2.3.6 1.8 2.1 2.7 3.6 2.7 4.6 0 1.8-.6 3-1.7 3.6-1 .3-5.5.9-13.4 1.8-1.5.7-2.4 1-2.5 1-.1 0-.3-.1-.8-.2s-.8-.2-.8-.2c-1.6 0-3.5.6-5.7 1.7.4.8 1.1 1.5 2 2.1 1 .2 3 .7 6.2 1.7.8.3 2.4.9 4.8 1.9l.7.2c.5.2 1.9.8 4.3 1.9 1.5.7 2.8 1.8 3.9 3.3.5.6.9 1.8 1.2 3.5 0 .1.2.4.6 1 .5.7.7 1.1.7 1.3z"/><linearGradient id="SVGID_1_" gradientUnits="userSpaceOnUse" x1="1684.18" y1="-95.815" x2="1753.245" y2="-164.88" gradientTransform="scale(-1) rotate(11.643 638.743 -9959.69)"><stop offset=".075" stop-color="#e43112"/><stop offset=".481" stop-color="#fff"/><stop offset=".61" stop-color="#fbbc1d"/><stop offset=".979" stop-color="#f08557"/></linearGradient><path d="M292.4 120.2c4.2-2.1 17.7-.8 17.7 11 0 1.4 1.9 2 2.6.8 7.4-11.6 10.4-27.4 11-35 .6-7.9 0-16.9-5.3-23.2-2.5-3-6.5-6-10.6-6.9-1.1-.3-2 .8-1.6 1.8 1.4 3.7 3.6 10.3 1.5 16-2.5 7-6.5 13.8-11 19.7-6.9 9.1-16.3 15.9-23.2 25.1-6.8 9-12 19.3-15.1 30.2 0 .1-.1.2-.1.3 2.5-8.3 15.3-30.5 34.1-39.8z" fill="url(#SVGID_1_)"/><linearGradient id="SVGID_2_" gradientUnits="userSpaceOnUse" x1="329.938" y1="61.158" x2="310.894" y2="61.158"><stop offset=".002" stop-color="#51ade0"/><stop offset=".095" stop-color="#4da8dd"/><stop offset=".204" stop-color="#419ad3"/><stop offset=".32" stop-color="#2d83c3"/><stop offset=".363" stop-color="#2478bc"/><stop offset=".645" stop-color="#17305c"/></linearGradient><circle cx="320.4" cy="61.2" r="9.5" fill="url(#SVGID_2_)"/></svg>
