<svg xmlns="http://www.w3.org/2000/svg" width="70.844" height="24.18" viewBox="0 0 70.844 24.18">
  <metadata><?xpacket begin="﻿" id="W5M0MpCehiHzreSzNTczkc9d"?>
<x:xmpmeta xmlns:x="adobe:ns:meta/" x:xmptk="Adobe XMP Core 5.6-c142 79.160924, 2017/07/13-01:06:39        ">
   <rdf:RDF xmlns:rdf="http://www.w3.org/1999/02/22-rdf-syntax-ns#">
      <rdf:Description rdf:about=""/>
   </rdf:RDF>
</x:xmpmeta>
                                                                                                    
                                                                                                    
                                                                                                    
                                                                                                    
                                                                                                    
                                                                                                    
                                                                                                    
                                                                                                    
                                                                                                    
                                                                                                    
                                                                                                    
                                                                                                    
                                                                                                    
                                                                                                    
                                                                                                    
                                                                                                    
                                                                                                    
                                                                                                    
                                                                                                    
                                                                                                    
                           
<?xpacket end="w"?></metadata>
<defs>
    <style>
      .cls-1 {
        fill: #151515;
        fill-rule: evenodd;
        opacity: 0.1;
      }
    </style>
  </defs>
  <path id="Ellipse_554_copy_8" data-name="Ellipse 554 copy 8" class="cls-1" d="M314.583,4451.94a2.085,2.085,0,1,1-2.083,2.09A2.09,2.09,0,0,1,314.583,4451.94Zm8.334,0a2.085,2.085,0,1,1-2.084,2.09A2.09,2.09,0,0,1,322.917,4451.94Zm8.333,0a2.085,2.085,0,1,1-2.083,2.09A2.089,2.089,0,0,1,331.25,4451.94Zm8.333,0a2.085,2.085,0,1,1-2.083,2.09A2.09,2.09,0,0,1,339.583,4451.94Zm8.334,0a2.085,2.085,0,1,1-2.084,2.09A2.09,2.09,0,0,1,347.917,4451.94Zm8.333,0a2.085,2.085,0,1,1-2.083,2.09A2.089,2.089,0,0,1,356.25,4451.94Zm8.333,0a2.085,2.085,0,1,1-2.083,2.09A2.09,2.09,0,0,1,364.583,4451.94Zm8.334,0a2.085,2.085,0,1,1-2.084,2.09A2.09,2.09,0,0,1,372.917,4451.94Zm8.333,0a2.085,2.085,0,1,1-2.083,2.09A2.089,2.089,0,0,1,381.25,4451.94Zm-66.667,10a2.085,2.085,0,1,1-2.083,2.09A2.09,2.09,0,0,1,314.583,4461.94Zm8.334,0a2.085,2.085,0,1,1-2.084,2.09A2.09,2.09,0,0,1,322.917,4461.94Zm8.333,0a2.085,2.085,0,1,1-2.083,2.09A2.089,2.089,0,0,1,331.25,4461.94Zm8.333,0a2.085,2.085,0,1,1-2.083,2.09A2.09,2.09,0,0,1,339.583,4461.94Zm8.334,0a2.085,2.085,0,1,1-2.084,2.09A2.09,2.09,0,0,1,347.917,4461.94Zm8.333,0a2.085,2.085,0,1,1-2.083,2.09A2.089,2.089,0,0,1,356.25,4461.94Zm8.333,0a2.085,2.085,0,1,1-2.083,2.09A2.09,2.09,0,0,1,364.583,4461.94Zm8.334,0a2.085,2.085,0,1,1-2.084,2.09A2.09,2.09,0,0,1,372.917,4461.94Zm8.333,0a2.085,2.085,0,1,1-2.083,2.09A2.089,2.089,0,0,1,381.25,4461.94Zm-66.667,10a2.085,2.085,0,1,1-2.083,2.09A2.09,2.09,0,0,1,314.583,4471.94Zm8.334,0a2.085,2.085,0,1,1-2.084,2.09A2.09,2.09,0,0,1,322.917,4471.94Zm8.333,0a2.085,2.085,0,1,1-2.083,2.09A2.089,2.089,0,0,1,331.25,4471.94Zm8.333,0a2.085,2.085,0,1,1-2.083,2.09A2.09,2.09,0,0,1,339.583,4471.94Zm8.334,0a2.085,2.085,0,1,1-2.084,2.09A2.09,2.09,0,0,1,347.917,4471.94Zm8.333,0a2.085,2.085,0,1,1-2.083,2.09A2.089,2.089,0,0,1,356.25,4471.94Zm8.333,0a2.085,2.085,0,1,1-2.083,2.09A2.09,2.09,0,0,1,364.583,4471.94Zm8.334,0a2.085,2.085,0,1,1-2.084,2.09A2.09,2.09,0,0,1,372.917,4471.94Zm8.333,0a2.085,2.085,0,1,1-2.083,2.09A2.089,2.089,0,0,1,381.25,4471.94Z" transform="translate(-312.5 -4451.94)"/>
</svg>
